<?xml version="1.0" encoding="UTF-8" standalone="no"?>
<!DOCTYPE svg PUBLIC "-//W3C//DTD SVG 1.1//EN"
 "http://www.w3.org/Graphics/SVG/1.1/DTD/svg11.dtd">
<!-- Generated by graphviz version 7.0.1 (0)
 -->
<!-- Title: G Pages: 1 -->
<svg width="998pt" height="290pt"
 viewBox="0.00 0.00 998.47 290.00" xmlns="http://www.w3.org/2000/svg" xmlns:xlink="http://www.w3.org/1999/xlink">
<g id="graph0" class="graph" transform="scale(1 1) rotate(0) translate(4 286)">
<title>G</title>
<polygon fill="white" stroke="none" points="-4,4 -4,-286 994.47,-286 994.47,4 -4,4"/>
<text text-anchor="middle" x="495.24" y="-10" font-family="Times,serif" font-size="20.00">Rule Dependency Graph</text>
<!-- val/1 &#160;| Position (line;9) -->
<g id="node1" class="node">
<title>val/1 &#160;| Position (line;9)</title>
<g id="a_node1"><a xlink:href="https://github.com/Owrel/clindoc/blob/master/examples/sudoku_without_user_doc.lp#L9" xlink:title="val/1 &#160;| Position (line;9)">
<ellipse fill="none" stroke="black" cx="693.24" cy="-264" rx="117.78" ry="18"/>
<text text-anchor="middle" x="693.24" y="-260.3" font-family="Times,serif" font-size="14.00">val/1 &#160;| Position (line;9)</text>
</a>
</g>
</g>
<!-- pos/2 &#160;| Position (line;10) -->
<g id="node2" class="node">
<title>pos/2 &#160;| Position (line;10)</title>
<g id="a_node2"><a xlink:href="https://github.com/Owrel/clindoc/blob/master/examples/sudoku_without_user_doc.lp#L10" xlink:title="pos/2 &#160;| Position (line;10)">
<ellipse fill="none" stroke="black" cx="616.24" cy="-192" rx="126.18" ry="18"/>
<text text-anchor="middle" x="616.24" y="-188.3" font-family="Times,serif" font-size="14.00">pos/2 &#160;| Position (line;10)</text>
</a>
</g>
</g>
<!-- val/1 &#160;| Position (line;9)&#45;&gt;pos/2 &#160;| Position (line;10) -->
<g id="edge6" class="edge">
<title>val/1 &#160;| Position (line;9)&#45;&gt;pos/2 &#160;| Position (line;10)</title>
<path fill="none" stroke="black" d="M674.6,-246.05C665.28,-237.58 653.82,-227.17 643.53,-217.82"/>
<polygon fill="black" stroke="black" points="646.11,-215.43 636.36,-211.29 641.4,-220.61 646.11,-215.43"/>
</g>
<!-- sudoku/3 &#160;| Position (line;17) -->
<g id="node4" class="node">
<title>sudoku/3 &#160;| Position (line;17)</title>
<g id="a_node4"><a xlink:href="https://github.com/Owrel/clindoc/blob/master/examples/sudoku_without_user_doc.lp#L17" xlink:title="sudoku/3 &#160;| Position (line;17)">
<ellipse fill="none" stroke="black" cx="770.24" cy="-120" rx="142.97" ry="18"/>
<text text-anchor="middle" x="770.24" y="-116.3" font-family="Times,serif" font-size="14.00">sudoku/3 &#160;| Position (line;17)</text>
</a>
</g>
</g>
<!-- val/1 &#160;| Position (line;9)&#45;&gt;sudoku/3 &#160;| Position (line;17) -->
<g id="edge8" class="edge">
<title>val/1 &#160;| Position (line;9)&#45;&gt;sudoku/3 &#160;| Position (line;17)</title>
<path fill="none" stroke="black" d="M718.06,-246.04C729.84,-236.73 743.1,-224.2 751.24,-210 761.82,-191.53 766.52,-167.86 768.61,-149.57"/>
<polygon fill="black" stroke="black" points="772.09,-149.95 769.52,-139.68 765.12,-149.31 772.09,-149.95"/>
</g>
<!-- subgrid/3 &#160;| Position (line;14) -->
<g id="node3" class="node">
<title>subgrid/3 &#160;| Position (line;14)</title>
<g id="a_node3"><a xlink:href="https://github.com/Owrel/clindoc/blob/master/examples/sudoku_without_user_doc.lp#L14" xlink:title="subgrid/3 &#160;| Position (line;14)">
<ellipse fill="none" stroke="black" cx="159.24" cy="-120" rx="145.67" ry="18"/>
<text text-anchor="middle" x="159.24" y="-116.3" font-family="Times,serif" font-size="14.00">subgrid/3 &#160;| Position (line;14)</text>
</a>
</g>
</g>
<!-- pos/2 &#160;| Position (line;10)&#45;&gt;subgrid/3 &#160;| Position (line;14) -->
<g id="edge10" class="edge">
<title>pos/2 &#160;| Position (line;10)&#45;&gt;subgrid/3 &#160;| Position (line;14)</title>
<path fill="none" stroke="black" d="M532.42,-178.16C455.51,-166.38 341.45,-148.91 259.69,-136.39"/>
<polygon fill="black" stroke="black" points="260.29,-132.94 249.88,-134.88 259.23,-139.86 260.29,-132.94"/>
</g>
<!-- pos/2 &#160;| Position (line;10)&#45;&gt;sudoku/3 &#160;| Position (line;17) -->
<g id="edge1" class="edge">
<title>pos/2 &#160;| Position (line;10)&#45;&gt;sudoku/3 &#160;| Position (line;17)</title>
<path fill="none" stroke="black" d="M652.73,-174.41C673.69,-164.88 700.25,-152.81 722.82,-142.55"/>
<polygon fill="black" stroke="black" points="724.17,-145.78 731.82,-138.46 721.27,-139.41 724.17,-145.78"/>
</g>
<!-- constraint#2 | Position (line;33) -->
<g id="node7" class="node">
<title>constraint#2 | Position (line;33)</title>
<g id="a_node7"><a xlink:href="https://github.com/Owrel/clindoc/blob/master/examples/sudoku_without_user_doc.lp#L33" xlink:title="constraint#2 | Position (line;33)">
<ellipse fill="none" stroke="black" cx="159.24" cy="-48" rx="159.47" ry="18"/>
<text text-anchor="middle" x="159.24" y="-44.3" font-family="Times,serif" font-size="14.00">constraint#2 | Position (line;33)</text>
</a>
</g>
</g>
<!-- subgrid/3 &#160;| Position (line;14)&#45;&gt;constraint#2 | Position (line;33) -->
<g id="edge5" class="edge">
<title>subgrid/3 &#160;| Position (line;14)&#45;&gt;constraint#2 | Position (line;33)</title>
<path fill="none" stroke="black" d="M159.24,-101.7C159.24,-94.41 159.24,-85.73 159.24,-77.54"/>
<polygon fill="black" stroke="black" points="162.74,-77.62 159.24,-67.62 155.74,-77.62 162.74,-77.62"/>
</g>
<!-- constraint#0 | Position (line;25) -->
<g id="node5" class="node">
<title>constraint#0 | Position (line;25)</title>
<g id="a_node5"><a xlink:href="https://github.com/Owrel/clindoc/blob/master/examples/sudoku_without_user_doc.lp#L25" xlink:title="constraint#0 | Position (line;25)">
<ellipse fill="none" stroke="black" cx="831.24" cy="-48" rx="159.47" ry="18"/>
<text text-anchor="middle" x="831.24" y="-44.3" font-family="Times,serif" font-size="14.00">constraint#0 | Position (line;25)</text>
</a>
</g>
</g>
<!-- sudoku/3 &#160;| Position (line;17)&#45;&gt;constraint#0 | Position (line;25) -->
<g id="edge4" class="edge">
<title>sudoku/3 &#160;| Position (line;17)&#45;&gt;constraint#0 | Position (line;25)</title>
<path fill="none" stroke="black" d="M785.31,-101.7C792.41,-93.56 801.01,-83.69 808.84,-74.7"/>
<polygon fill="black" stroke="black" points="811.41,-77.08 815.34,-67.25 806.13,-72.49 811.41,-77.08"/>
</g>
<!-- constraint#1 | Position (line;28) -->
<g id="node6" class="node">
<title>constraint#1 | Position (line;28)</title>
<g id="a_node6"><a xlink:href="https://github.com/Owrel/clindoc/blob/master/examples/sudoku_without_user_doc.lp#L28" xlink:title="constraint#1 | Position (line;28)">
<ellipse fill="none" stroke="black" cx="495.24" cy="-48" rx="159.47" ry="18"/>
<text text-anchor="middle" x="495.24" y="-44.3" font-family="Times,serif" font-size="14.00">constraint#1 | Position (line;28)</text>
</a>
</g>
</g>
<!-- sudoku/3 &#160;| Position (line;17)&#45;&gt;constraint#1 | Position (line;28) -->
<g id="edge11" class="edge">
<title>sudoku/3 &#160;| Position (line;17)&#45;&gt;constraint#1 | Position (line;28)</title>
<path fill="none" stroke="black" d="M708.86,-103.38C667.51,-92.85 612.73,-78.91 569,-67.78"/>
<polygon fill="black" stroke="black" points="569.87,-64.39 559.32,-65.31 568.14,-71.17 569.87,-64.39"/>
</g>
<!-- sudoku/3 &#160;| Position (line;17)&#45;&gt;constraint#2 | Position (line;33) -->
<g id="edge3" class="edge">
<title>sudoku/3 &#160;| Position (line;17)&#45;&gt;constraint#2 | Position (line;33)</title>
<path fill="none" stroke="black" d="M666.93,-107.17C559.82,-94.89 392.52,-75.73 279.52,-62.78"/>
<polygon fill="black" stroke="black" points="280.26,-59.34 269.93,-61.68 279.46,-66.3 280.26,-59.34"/>
</g>
<!-- sudoku/3 &#160;| Position (line;36) -->
<g id="node8" class="node">
<title>sudoku/3 &#160;| Position (line;36)</title>
<g id="a_node8"><a xlink:href="https://github.com/Owrel/clindoc/blob/master/examples/sudoku_without_user_doc.lp#L36" xlink:title="sudoku/3 &#160;| Position (line;36)">
<ellipse fill="none" stroke="black" cx="466.24" cy="-120" rx="142.97" ry="18"/>
<text text-anchor="middle" x="466.24" y="-116.3" font-family="Times,serif" font-size="14.00">sudoku/3 &#160;| Position (line;36)</text>
</a>
</g>
</g>
<!-- sudoku/3 &#160;| Position (line;36)&#45;&gt;constraint#0 | Position (line;25) -->
<g id="edge2" class="edge">
<title>sudoku/3 &#160;| Position (line;36)&#45;&gt;constraint#0 | Position (line;25)</title>
<path fill="none" stroke="black" d="M542.31,-104.41C600.33,-93.28 680.41,-77.92 741.56,-66.2"/>
<polygon fill="black" stroke="black" points="742.09,-69.66 751.26,-64.34 740.78,-62.78 742.09,-69.66"/>
</g>
<!-- sudoku/3 &#160;| Position (line;36)&#45;&gt;constraint#1 | Position (line;28) -->
<g id="edge9" class="edge">
<title>sudoku/3 &#160;| Position (line;36)&#45;&gt;constraint#1 | Position (line;28)</title>
<path fill="none" stroke="black" d="M473.4,-101.7C476.53,-94.15 480.27,-85.12 483.77,-76.68"/>
<polygon fill="black" stroke="black" points="486.98,-78.08 487.57,-67.5 480.51,-75.4 486.98,-78.08"/>
</g>
<!-- sudoku/3 &#160;| Position (line;36)&#45;&gt;constraint#2 | Position (line;33) -->
<g id="edge7" class="edge">
<title>sudoku/3 &#160;| Position (line;36)&#45;&gt;constraint#2 | Position (line;33)</title>
<path fill="none" stroke="black" d="M399.24,-103.72C352.09,-92.97 288.76,-78.53 238.99,-67.19"/>
<polygon fill="black" stroke="black" points="239.95,-63.81 229.42,-65 238.39,-70.64 239.95,-63.81"/>
</g>
</g>
</svg>
